<svg id="Layer_1" data-name="Layer 1" xmlns="http://www.w3.org/2000/svg" viewBox="0 0 112.15 28.38"><defs><style>.cls-1{font-size:23px;font-family:HossRound-MediumItalic, Hoss Round;font-weight:500;font-style:italic;}.cls-1,.cls-8{fill:#0acdff;}.cls-2{letter-spacing:-0.03em;}.cls-3{letter-spacing:-0.01em;}.cls-4{letter-spacing:0em;}.cls-5{letter-spacing:-0.03em;}.cls-6{letter-spacing:-0.01em;}.cls-7{letter-spacing:0em;}</style></defs><text class="cls-1" transform="translate(0 23.11)">O<tspan class="cls-2" x="17.69" y="0">n</tspan><tspan class="cls-3" x="31.03" y="0">l</tspan><tspan class="cls-4" x="37.26" y="0">y</tspan><tspan class="cls-5" x="49.31" y="0">P</tspan><tspan class="cls-6" x="62.79" y="0">e</tspan><tspan class="cls-7" x="75.83" y="0">t</tspan><tspan x="85.33" y="0">s</tspan></text><ellipse class="cls-8" cx="197.75" cy="79.45" rx="2.44" ry="1.47" transform="matrix(0.26, -0.97, 0.97, 0.26, -23.77, 172.59)"/><ellipse class="cls-8" cx="201.43" cy="81.34" rx="2.53" ry="1.42" transform="translate(-98.85 70.13) rotate(-39.64)"/><ellipse class="cls-8" cx="193.05" cy="80.08" rx="1.51" ry="2.38" transform="translate(-101.29 -54.01) rotate(-6.7)"/><ellipse class="cls-8" cx="202.93" cy="84.83" rx="2.55" ry="1.41" transform="translate(-107.65 -26.25) rotate(-13.79)"/><ellipse class="cls-8" cx="195.07" cy="85.78" rx="4.41" ry="3.11" transform="translate(-106.26 54.8) rotate(-36.23)"/><ellipse class="cls-8" cx="196.89" cy="86.72" rx="4.22" ry="3.01" transform="translate(-13.48 190.13) rotate(-80.79)"/></svg>